<?xml version="1.0" encoding="UTF-8"?>
<!DOCTYPE svg PUBLIC "-//W3C//DTD SVG 1.1//EN" "http://www.w3.org/Graphics/SVG/1.1/DTD/svg11.dtd">
<!-- Creator: CorelDRAW 2017 -->
<svg xmlns="http://www.w3.org/2000/svg" xml:space="preserve" width="23.8052mm" height="9.464mm" version="1.1" style="shape-rendering:geometricPrecision; text-rendering:geometricPrecision; image-rendering:optimizeQuality; fill-rule:evenodd; clip-rule:evenodd"
viewBox="0 0 1985.02 789.17"
 xmlns:xlink="http://www.w3.org/1999/xlink">
 <defs>
  <style type="text/css">
   <![CDATA[
    .fil0 {fill:#D9DADA}
   ]]>
  </style>
 </defs>
 <g id="Warstwa_x0020_1">
  <metadata id="CorelCorpID_0Corel-Layer"/>
  <g id="_2371460394064">
   <g id="_2950789774096">
    <path class="fil0" d="M72.75 314.31c-0.7,-5.3 30.56,-88.75 34.95,-100.73 12.27,-33.34 24.15,-66.67 35.96,-100 9.65,-27.27 10.51,-32.25 35.67,-32.11l136.01 0.54c9.76,0.05 24.05,-2.05 30.89,2.57 9.52,6.4 9.81,10.64 9.78,25.27l-0.39 203.56c0.05,11 -3.64,18.75 -9.47,24.26 -7.14,6.72 -17.95,4.54 -29.89,4.49 -72.43,-0.28 -147.29,-1.45 -219.55,-1.12 -7.89,0.03 -6.87,-0.88 -11.26,-5.04 -5.24,-4.98 -11.34,-11.28 -12.71,-21.66l0 -0.02zm591.83 0.93c-1.68,9.6 -6.67,16.06 -11.6,20.62 -8.48,7.8 -10.01,5.53 -27.18,5.53 -21.56,0.03 -43.14,0.08 -64.72,0.18 -42.34,0.21 -87.5,1.94 -129.5,0.6 -9.94,-0.33 -16.01,-7.65 -19.56,-12.94 -5.65,-8.41 -3.81,-15.23 -3.81,-29l0 -194.17c-0.13,-28.41 22.51,-25.37 39.35,-25.24l129.45 0.28c22.05,-0.03 24.59,10.95 31.03,33.28l43.5 150.72c2.43,8.51 14.03,44.36 13.02,50.15l0.03 -0.01zm895.73 -198.87c-2.41,-9.16 1.66,-23.01 5.89,-28.53 7.1,-9.29 14.34,-6.61 28.53,-6.61 23.77,0 47.52,-0.03 71.29,-0.03l106 -0.1c15.15,0 19.38,-1.38 27.21,8.07 7.37,8.9 14.27,38.55 18.14,52.25 5.3,18.75 10.51,36.66 15.98,55.31 10.56,36.03 20.83,73.67 31.68,109.89 3.4,11.37 -2.15,19.4 -7.37,25.76 -10.14,12.35 -13.47,9.01 -26.51,9.01 -23.77,0.03 -47.52,0.13 -71.29,0.13l-106 0.33c-15.08,0.03 -20.7,1.43 -27.39,-8.59 -7.5,-11.26 -13.54,-37.33 -17.9,-52.45l-32.11 -109.53c-5.35,-18.16 -11.28,-36.71 -16.09,-54.87l-0.05 -0.04zm-302.95 -1.87c-1.73,-9.76 2.54,-33.31 18.39,-33.51l195.16 -0.31c15.02,0 19.15,-0.6 26.62,9.08 6.8,8.8 28.69,90.85 33.7,108.04 5.24,18.05 10.82,36.81 15.9,55.25 5.14,18.6 11.23,36.76 16.01,55.31 2.57,10.01 -4.41,19.5 -8.82,24.59 -8.59,9.88 -10.25,7.96 -27.13,8.07 -23.74,0.13 -47.56,0.18 -71.29,0.18l-106 0.23c-14.38,0.05 -19.74,0.75 -26.36,-9.21 -7.16,-10.74 -13.44,-38.29 -17.74,-52.56l-32.35 -110.28c-2.75,-9.18 -5.42,-18.31 -8.07,-27.55 -2.18,-7.68 -6.77,-20.15 -8.04,-27.32l0.03 -0.03zm-300.08 0c-1.63,-10.25 2.13,-21.32 6.72,-27.63 6.17,-8.48 16.04,-5.94 29.49,-5.94l177.28 -0.28c14.99,0 19.22,-0.63 26.69,9.03 6.87,8.87 28.61,90.92 33.62,107.99 9.67,33 23.58,78.66 31.99,110.67 2.57,9.81 -4.69,20.03 -8.82,24.72 -8.61,9.81 -10.32,7.86 -27.18,7.96l-177.29 0.39c-14.27,0.05 -19.77,0.96 -26.38,-9.18 -7.34,-11.28 -28.08,-88.66 -33.87,-107.78l-32.25 -109.97 0 0.01zm-298.33 0c-1.53,-9.81 2.13,-21.95 6.75,-27.63 3.11,-3.84 5.5,-5.81 11.62,-5.91l195.16 -0.31c14.97,0 19.2,-0.6 26.62,9.08 6.87,8.95 28.84,90.72 33.65,107.97 9.44,33.88 24.17,79.15 31.99,110.64 2.47,9.94 -4.62,19.77 -8.85,24.62 -8.56,9.86 -10.27,7.94 -27.11,8.04l-141.64 0.31c-11.88,0 -23.77,0.03 -35.65,0.08 -14.14,0.05 -20.05,0.73 -26.36,-9.21 -7.08,-11.11 -13.62,-37.98 -17.79,-52.61 -5.21,-18.34 -10.61,-36.81 -16.16,-55.08l-24.28 -82.68c-2.18,-7.19 -6.98,-20.96 -7.96,-27.34l0.03 0.03zm-580 -104.1l0.93 62.86c5,3.34 8.48,5.21 14.4,8.12 14.78,7.26 12.51,15.74 7.34,29.54l-5.91 17.54c-5.11,13.62 -9.44,28.72 -14.87,42.34l-8.82 25.87c-3.17,11.37 -8.22,22.88 -11.93,34.04 -1.84,5.58 -3.87,10.84 -5.89,16.63l-47.35 137.44c-2.1,6.38 -4.88,10.17 -4.85,18.6l-1.84 205.45c0,10.01 -1.22,13.68 3.22,20.24 5,7.45 15.57,21.04 25.87,21.04l238.25 0c3.99,0 2.8,-3.69 2.83,-7.47l2.85 -29.05c1.27,-6.23 2.7,-11.23 4.2,-17.38 5.24,-21.14 15.57,-40.34 28.95,-57.35 16.47,-20.94 37.62,-34.19 61.2,-45.74 20.26,-9.94 48.48,-14.68 71.63,-14.68 34.61,0 68.98,10.14 97.54,29.08l12.58 8.97c5.63,3.81 17.09,15.57 21.2,21.01 10.22,13.52 16.86,25.45 24.07,40.65 4.62,9.73 7.26,22.26 9.29,32.92 1.77,9.31 3.27,18.96 3.19,28.72 -0.05,5.19 0.65,6.49 0.96,10.3l686.62 0c21.09,0 16.65,3.87 18.63,-14.22 0.54,-5 0.68,-10.51 1.07,-14.89 2.28,-27.5 18,-60.47 33.9,-80.53 10.74,-13.54 24.38,-24.96 38.76,-34.42l16.32 -9.01c3.55,-1.48 7.24,-3.04 11.07,-4.88 18.55,-8.85 52.45,-13.75 73.5,-13.75 34.68,0 77.1,12.35 104.67,33.2 14.22,10.77 26.72,23.58 36.97,38.06 1.53,2.18 2.38,4.02 3.94,6.4 1.79,2.78 2.59,3.81 4.2,7.05 5.04,10.11 9.6,19.33 12.84,30.3 1.68,5.63 2.75,11.6 3.94,17.61 3.74,18.7 3.09,34.53 4.15,39.02 65.79,0 128.7,0.93 194.17,0.93 13.68,0 60.39,3.34 70.98,-0.31l17.54 -6.87c11.31,-5.42 19.69,-12.58 26.74,-22.02 3.34,-4.49 17.02,-26.02 17.02,-31.78l0 -246.71c0,-4.9 -2.54,-8.59 -3.87,-13l-35.88 -140.45c-1.4,-5.63 -2.49,-8.31 -3.5,-14.32 -0.83,-5 -2.41,-9.47 -3.64,-14.19 -1.27,-4.8 -2.47,-9.52 -3.55,-14.27l-7.8 -27.83c-2.88,-8.46 -5.27,-17.69 -8.48,-26.22 -1.5,-3.99 -2.94,-8.95 -4.67,-13.15 -10.79,-26.04 -24.36,-58.79 -49.62,-73.26 -10.41,-5.94 -13.12,-6.59 -29.05,-6.59l-635.96 0c-94.5,0 -186.54,0.93 -281.4,0.93l-812.3 0c-8.59,0 -26.25,-3.74 -26.25,9.39l-0.08 0.08z"/>
    <path class="fil0" d="M1347.12 642.62c0,16.99 -0.6,25.06 4.15,41.82 4.28,15.08 2.62,9.96 8.56,24.26l14.76 24.64c1.58,1.94 2.13,2.28 3.89,4.57 6.46,8.31 7.29,8.36 14.24,14.84 20.99,19.64 54.58,35.28 82.91,35.28 30.35,0 42.94,-0.13 71.63,-13.75 15.88,-7.55 33.28,-21.53 44.49,-35.26l13.31 -18.57c17.95,-31.24 24.67,-71.8 14.22,-107.01 -3.19,-10.77 -3.66,-13.49 -8.85,-23.97 -7.21,-14.53 -10.06,-17.67 -18.86,-28.98l-12.04 -12.37c-4.57,-4.02 -7.14,-7.08 -13.28,-11.11 -21.01,-13.75 -44.99,-25.71 -72.8,-25.71 -29.03,0 -40.37,1.12 -67.53,13.15 -7.14,3.17 -14.38,8.04 -20.65,12.19l-17.87 14.97 -14.97 17.87c-4.13,6.25 -9.03,13.52 -12.19,20.65 -1.58,3.6 -3.53,7.47 -4.83,11.11 -4.3,11.91 -8.31,27.81 -8.31,41.4l0 -0.02z"/>
    <path class="fil0" d="M301.27 650.12c0,11.91 3.14,34.04 7.21,44.36 8.48,21.48 14.97,35.51 32.4,52.95 13.57,13.54 33.25,27.63 51.67,33.67 4.36,1.43 9.24,2.85 13,3.89 26.1,7.14 57.18,4.67 82.75,-4.13 25.81,-8.87 50.74,-29.29 66.36,-51.83 22.77,-32.9 28.35,-70.77 20.6,-109.99 -2.54,-12.89 -10.51,-31.05 -17.74,-42.31 -6.46,-10.04 -10.92,-15.69 -19.64,-24.44 -10.11,-10.11 -27.44,-22.83 -40.96,-28.46 -13.96,-5.81 -25.42,-9.03 -40.32,-11.28l-32.22 -0.13c-4.46,0.6 -10.06,1.73 -14.87,2.96 -17.95,4.51 -20.83,5.6 -37.25,14.32 -10.87,5.79 -21.3,13.93 -29.94,22.6 -13.26,13.28 -20.13,24.21 -28.56,40.86 -2.47,4.88 -7.75,20.05 -8.77,25.94 -1.71,9.99 -3.74,19.12 -3.74,30.98l0 0.05z"/>
   </g>
  </g>
 </g>
</svg>
